<svg xmlns="http://www.w3.org/2000/svg" version="1.0" width="989.74304" height="1000.0" id="C:\Tom\rhombille_tiling_3color.svg">
<!-- X Coordinate transform: fx(x)=(x+-28.524231)*0.999641-->
<!-- Y Coordinate transform: fy(y)=(981.30505-y)*0.999641 -->
<!-- Flac geometry view -->
<g style="opacity:1.0;fill:#ffffff;fill-opacity:1;stroke:#68a9ed;stroke-width:1.0;stroke-opacity:0.300;"> <!-- group <Default> -->
<polygon points=" 400.611,459.184 353.48,431.973 353.48,377.551 400.611,404.762"/>
<polygon points=" 447.741,486.394 447.741,540.817 400.611,513.606 400.611,459.184"/>
<polygon points=" 23.565,132.653 70.696,159.864 70.696,214.286 23.565,187.075"/>
<polygon points=" 494.872,513.606 494.872,459.184 542.002,486.394 542.002,540.817"/>
<polygon points=" 919.048,51.021 966.178,78.231 966.178,132.653 919.048,105.442"/>
<polygon points=" 919.048,921.769 919.048,867.348 966.178,894.558 966.178,948.98"/>
<polygon points=" 919.048,867.348 871.917,840.136 871.917,785.715 919.048,812.925"/>
<polygon points=" 70.696,921.769 70.696,867.348 117.826,894.558 117.826,948.98"/>
<polygon points=" 636.263,105.442 636.263,51.021 683.394,78.231 683.394,132.653"/>
<polygon points=" 494.872,459.184 447.741,431.973 447.741,377.551 494.872,404.762"/>
<polygon points=" 353.48,540.817 306.349,513.606 306.349,459.184 353.48,486.394"/>
<polygon points=" 70.696,867.348 23.565,840.136 23.565,785.715 70.696,812.925"/>
<polygon points=" 70.696,51.021 117.826,78.231 117.826,132.653 70.696,105.442"/>
<polygon points=" 542.002,649.66 542.002,704.082 494.872,676.871 494.872,622.45"/>
<polygon points=" 542.002,540.817 589.133,568.027 589.133,622.45 542.002,595.238"/>
<polygon points=" 919.048,214.286 966.178,241.496 966.178,295.919 919.048,268.708"/>
<polygon points=" 542.002,323.129 542.002,377.551 494.872,350.34 494.872,295.919"/>
<polygon points=" 353.48,323.129 353.48,377.551 306.349,350.34 306.349,295.919"/>
<polygon points=" 542.002,268.708 542.002,214.286 589.133,241.496 589.133,295.919"/>
<polygon points=" 919.048,595.238 919.048,540.817 966.178,568.027 966.178,622.45"/>
<polygon points=" 212.088,241.496 212.088,295.919 164.958,268.708 164.958,214.286"/>
<polygon points=" 164.958,867.348 212.088,894.558 212.088,948.98 164.958,921.769"/>
<polygon points=" 777.655,948.98 730.525,921.769 730.525,867.348 777.655,894.558"/>
<polygon points=" 70.696,704.082 23.565,676.871 23.565,622.45 70.696,649.66"/>
<polygon points=" 542.002,105.442 542.002,51.021 589.133,78.231 589.133,132.653"/>
<polygon points=" 683.394,676.871 683.394,622.45 730.525,649.66 730.525,704.082"/>
<polygon points=" 919.048,431.973 919.048,377.551 966.178,404.762 966.178,459.184"/>
<polygon points=" 777.655,840.136 777.655,785.715 824.787,812.925 824.787,867.348"/>
<polygon points=" 824.787,758.504 824.787,704.082 871.917,731.292 871.917,785.715"/>
<polygon points=" 353.48,812.925 353.48,867.348 306.349,840.136 306.349,785.715"/>
<polygon points=" 306.349,731.292 306.349,785.715 259.219,758.504 259.219,704.082"/>
<polygon points=" 636.263,758.504 636.263,704.082 683.394,731.292 683.394,785.715"/>
<polygon points=" 447.741,812.925 447.741,867.348 400.611,840.136 400.611,785.715"/>
<polygon points=" 259.219,159.864 259.219,214.286 212.088,187.075 212.088,132.653"/>
<polygon points=" 683.394,187.075 683.394,132.653 730.525,159.864 730.525,214.286"/>
<polygon points=" 494.872,187.075 494.872,132.653 542.002,159.864 542.002,214.286"/>
<polygon points=" 777.655,350.34 777.655,295.919 824.787,323.129 824.787,377.551"/>
<polygon points=" 824.787,431.973 824.787,377.551 871.917,404.762 871.917,459.184"/>
<polygon points=" 871.917,513.606 871.917,459.184 919.048,486.394 919.048,540.817"/>
<polygon points=" 777.655,676.871 777.655,622.45 824.787,649.66 824.787,704.082"/>
<polygon points=" 730.525,595.238 730.525,540.817 777.655,568.027 777.655,622.45"/>
<polygon points=" 683.394,513.606 683.394,459.184 730.525,486.394 730.525,540.817"/>
<polygon points=" 636.263,431.973 636.263,377.551 683.394,404.762 683.394,459.184"/>
<polygon points=" 589.133,350.34 589.133,295.919 636.263,323.129 636.263,377.551"/>
<polygon points=" 777.655,513.606 777.655,459.184 824.787,486.394 824.787,540.817"/>
<polygon points=" 636.263,595.238 636.263,540.817 683.394,568.027 683.394,622.45"/>
<polygon points=" 589.133,513.606 589.133,459.184 636.263,486.394 636.263,540.817"/>
<polygon points=" 589.133,459.184 542.002,431.973 542.002,377.551 589.133,404.762"/>
<polygon points=" 164.958,649.66 164.958,704.082 117.826,676.871 117.826,622.45"/>
<polygon points=" 212.088,731.292 212.088,785.715 164.958,758.504 164.958,704.082"/>
<polygon points=" 259.219,812.925 259.219,867.348 212.088,840.136 212.088,785.715"/>
<polygon points=" 400.611,731.292 400.611,785.715 353.48,758.504 353.48,704.082"/>
<polygon points=" 353.48,649.66 353.48,704.082 306.349,676.871 306.349,622.45"/>
<polygon points=" 730.525,431.973 730.525,377.551 777.655,404.762 777.655,459.184"/>
<polygon points=" 447.741,540.817 494.872,568.027 494.872,622.45 447.741,595.238"/>
<polygon points=" 306.349,568.027 306.349,622.45 259.219,595.238 259.219,540.817"/>
<polygon points=" 259.219,486.394 259.219,540.817 212.088,513.606 212.088,459.184"/>
<polygon points=" 259.219,323.129 259.219,377.551 212.088,350.34 212.088,295.919"/>
<polygon points=" 306.349,404.762 306.349,459.184 259.219,431.973 259.219,377.551"/>
<polygon points=" 447.741,268.708 447.741,214.286 494.872,241.496 494.872,295.919"/>
<polygon points=" 164.958,105.442 164.958,51.021 212.088,78.231 212.088,132.653"/>
<polygon points=" 306.349,132.653 259.219,105.442 259.219,51.021 306.349,78.231"/>
<polygon points=" 400.611,132.653 353.48,105.442 353.48,51.021 400.611,78.231"/>
<polygon points=" 70.696,486.394 70.696,540.817 23.565,513.606 23.565,459.184"/>
<polygon points=" 117.826,568.027 117.826,622.45 70.696,595.238 70.696,540.817"/>
<polygon points=" 70.696,214.286 117.826,241.496 117.826,295.919 70.696,268.708"/>
<polygon points=" 777.655,78.231 777.655,132.653 730.525,105.442 730.525,51.021"/>
<polygon points=" 777.655,187.075 777.655,132.653 824.787,159.864 824.787,214.286"/>
<polygon points=" 447.741,214.286 400.611,187.075 400.611,132.653 447.741,159.864"/>
<polygon points=" 589.133,187.075 589.133,132.653 636.263,159.864 636.263,214.286"/>
<polygon points=" 306.349,295.919 259.219,268.708 259.219,214.286 306.349,241.496"/>
<polygon points=" 164.958,323.129 164.958,377.551 117.826,350.34 117.826,295.919"/>
<polygon points=" 23.565,295.919 70.696,323.129 70.696,377.551 23.565,350.34"/>
<polygon points=" 117.826,132.653 164.958,159.864 164.958,214.286 117.826,187.075"/>
<polygon points=" 117.826,404.762 117.826,459.184 70.696,431.973 70.696,377.551"/>
<polygon points=" 353.48,214.286 306.349,187.075 306.349,132.653 353.48,159.864"/>
<polygon points=" 212.088,404.762 212.088,459.184 164.958,431.973 164.958,377.551"/>
<polygon points=" 447.741,105.442 447.741,51.021 494.872,78.231 494.872,132.653"/>
<polygon points=" 683.394,785.715 730.525,812.925 730.525,867.348 683.394,840.136"/>
<polygon points=" 871.917,948.98 824.787,921.769 824.787,867.348 871.917,894.558"/>
<polygon points=" 164.958,867.348 117.826,840.136 117.826,785.715 164.958,812.925"/>
<polygon points=" 117.826,785.715 70.696,758.504 70.696,704.082 117.826,731.292"/>
<polygon points=" 683.394,350.34 683.394,295.919 730.525,323.129 730.525,377.551"/>
<polygon points=" 494.872,894.558 494.872,948.98 447.741,921.769 447.741,867.348"/>
<polygon points=" 542.002,867.348 589.133,894.558 589.133,948.98 542.002,921.769"/>
<polygon points=" 730.525,268.708 730.525,214.286 777.655,241.496 777.655,295.919"/>
<polygon points=" 871.917,132.653 919.048,159.864 919.048,214.286 871.917,187.075"/>
<polygon points=" 824.787,51.021 871.917,78.231 871.917,132.653 824.787,105.442"/>
<polygon points=" 259.219,649.66 259.219,704.082 212.088,676.871 212.088,622.45"/>
<polygon points=" 400.611,894.558 400.611,948.98 353.48,921.769 353.48,867.348"/>
<polygon points=" 542.002,812.925 542.002,867.348 494.872,840.136 494.872,785.715"/>
<polygon points=" 494.872,731.292 494.872,785.715 447.741,758.504 447.741,704.082"/>
<polygon points=" 306.349,894.558 306.349,948.98 259.219,921.769 259.219,867.348"/>
<polygon points=" 636.263,268.708 636.263,214.286 683.394,241.496 683.394,295.919"/>
<polygon points=" 824.787,268.708 824.787,214.286 871.917,241.496 871.917,295.919"/>
<polygon points=" 212.088,568.027 212.088,622.45 164.958,595.238 164.958,540.817"/>
<polygon points=" 164.958,486.394 164.958,540.817 117.826,513.606 117.826,459.184"/>
<polygon points=" 400.611,295.919 353.48,268.708 353.48,214.286 400.611,241.496"/>
<polygon points=" 447.741,323.129 447.741,377.551 400.611,350.34 400.611,295.919"/>
<polygon points=" 966.178,785.715 919.048,758.504 919.048,704.082 966.178,731.292"/>
<polygon points=" 730.525,704.082 777.655,731.292 777.655,785.715 730.525,758.504"/>
<polygon points=" 353.48,540.817 400.611,568.027 400.611,622.45 353.48,595.238"/>
<polygon points=" 447.741,649.66 447.741,704.082 400.611,676.871 400.611,622.45"/>
<polygon points=" 589.133,622.45 636.263,649.66 636.263,704.082 589.133,676.871"/>
<polygon points=" 542.002,704.082 589.133,731.292 589.133,785.715 542.002,758.504"/>
<polygon points=" 824.787,595.238 824.787,540.817 871.917,568.027 871.917,622.45"/>
<polygon points=" 871.917,676.871 871.917,622.45 919.048,649.66 919.048,704.082"/>
<polygon points=" 871.917,350.34 871.917,295.919 919.048,323.129 919.048,377.551"/>
<polygon points=" 636.263,867.348 683.394,894.558 683.394,948.98 636.263,921.769"/>
<polygon points=" 589.133,785.715 636.263,812.925 636.263,867.348 589.133,840.136"/>
</g>
<g style="opacity:1.0;fill:#ffffff;fill-opacity:1;stroke:#68a9ed;stroke-width:1;stroke-opacity:0.300;"> <!-- group a -->
<polygon points=" 494.872,513.606 447.741,540.817 447.741,486.394 494.872,459.184"/>
<polygon points=" 447.741,540.817 447.741,595.238 400.611,622.45 400.611,568.027"/>
<polygon points=" 70.696,51.021 70.696,105.442 23.565,132.653 23.565,78.231"/>
<polygon points=" 919.048,51.021 919.048,105.442 871.917,132.653 871.917,78.231"/>
<polygon points=" 919.048,921.769 871.917,948.98 871.917,894.558 919.048,867.348"/>
<polygon points=" 919.048,867.348 919.048,812.925 966.178,785.715 966.178,840.136"/>
<polygon points=" 70.696,921.769 23.565,948.98 23.565,894.558 70.696,867.348"/>
<polygon points=" 164.958,867.348 164.958,921.769 117.826,948.98 117.826,894.558"/>
<polygon points=" 636.263,105.442 589.133,132.653 589.133,78.231 636.263,51.021"/>
<polygon points=" 353.48,867.348 353.48,921.769 306.349,948.98 306.349,894.558"/>
<polygon points=" 966.178,132.653 966.178,187.075 919.048,214.286 919.048,159.864"/>
<polygon points=" 447.741,431.973 400.611,459.184 400.611,404.762 447.741,377.551"/>
<polygon points=" 306.349,568.027 353.48,540.817 353.48,595.238 306.349,622.45"/>
<polygon points=" 447.741,649.66 494.872,622.45 494.872,676.871 447.741,704.082"/>
<polygon points=" 542.002,540.817 542.002,595.238 494.872,622.45 494.872,568.027"/>
<polygon points=" 683.394,513.606 636.263,540.817 636.263,486.394 683.394,459.184"/>
<polygon points=" 589.133,350.34 542.002,377.551 542.002,323.129 589.133,295.919"/>
<polygon points=" 306.349,404.762 353.48,377.551 353.48,431.973 306.349,459.184"/>
<polygon points=" 70.696,758.504 23.565,785.715 23.565,731.292 70.696,704.082"/>
<polygon points=" 730.525,486.394 777.655,459.184 777.655,513.606 730.525,540.817"/>
<polygon points=" 966.178,295.919 966.178,350.34 919.048,377.551 919.048,323.129"/>
<polygon points=" 542.002,268.708 494.872,295.919 494.872,241.496 542.002,214.286"/>
<polygon points=" 919.048,704.082 919.048,649.66 966.178,622.45 966.178,676.871"/>
<polygon points=" 212.088,948.98 212.088,894.558 259.219,867.348 259.219,921.769"/>
<polygon points=" 447.741,867.348 447.741,921.769 400.611,948.98 400.611,894.558"/>
<polygon points=" 683.394,132.653 683.394,78.231 730.525,51.021 730.525,105.442"/>
<polygon points=" 542.002,105.442 494.872,132.653 494.872,78.231 542.002,51.021"/>
<polygon points=" 919.048,486.394 966.178,459.184 966.178,513.606 919.048,540.817"/>
<polygon points=" 353.48,812.925 400.611,785.715 400.611,840.136 353.48,867.348"/>
<polygon points=" 306.349,731.292 353.48,704.082 353.48,758.504 306.349,785.715"/>
<polygon points=" 871.917,404.762 919.048,377.551 919.048,431.973 871.917,459.184"/>
<polygon points=" 164.958,595.238 117.826,622.45 117.826,568.027 164.958,540.817"/>
<polygon points=" 117.826,513.606 70.696,540.817 70.696,486.394 117.826,459.184"/>
<polygon points=" 447.741,812.925 494.872,785.715 494.872,840.136 447.741,867.348"/>
<polygon points=" 683.394,187.075 636.263,214.286 636.263,159.864 683.394,132.653"/>
<polygon points=" 542.002,214.286 542.002,159.864 589.133,132.653 589.133,187.075"/>
<polygon points=" 824.787,323.129 871.917,295.919 871.917,350.34 824.787,377.551"/>
<polygon points=" 777.655,404.762 824.787,377.551 824.787,431.973 777.655,459.184"/>
<polygon points=" 871.917,568.027 919.048,540.817 919.048,595.238 871.917,622.45"/>
<polygon points=" 824.787,649.66 871.917,622.45 871.917,676.871 824.787,704.082"/>
<polygon points=" 683.394,568.027 730.525,540.817 730.525,595.238 683.394,622.45"/>
<polygon points=" 636.263,431.973 589.133,459.184 589.133,404.762 636.263,377.551"/>
<polygon points=" 636.263,377.551 636.263,323.129 683.394,295.919 683.394,350.34"/>
<polygon points=" 542.002,540.817 542.002,486.394 589.133,459.184 589.133,513.606"/>
<polygon points=" 212.088,676.871 164.958,704.082 164.958,649.66 212.088,622.45"/>
<polygon points=" 117.826,785.715 117.826,731.292 164.958,704.082 164.958,758.504"/>
<polygon points=" 306.349,785.715 306.349,840.136 259.219,867.348 259.219,812.925"/>
<polygon points=" 353.48,649.66 400.611,622.45 400.611,676.871 353.48,704.082"/>
<polygon points=" 636.263,595.238 589.133,622.45 589.133,568.027 636.263,540.817"/>
<polygon points=" 259.219,595.238 212.088,622.45 212.088,568.027 259.219,540.817"/>
<polygon points=" 259.219,486.394 306.349,459.184 306.349,513.606 259.219,540.817"/>
<polygon points=" 306.349,350.34 259.219,377.551 259.219,323.129 306.349,295.919"/>
<polygon points=" 259.219,431.973 212.088,459.184 212.088,404.762 259.219,377.551"/>
<polygon points=" 400.611,459.184 400.611,513.606 353.48,540.817 353.48,486.394"/>
<polygon points=" 494.872,459.184 494.872,404.762 542.002,377.551 542.002,431.973"/>
<polygon points=" 447.741,323.129 494.872,295.919 494.872,350.34 447.741,377.551"/>
<polygon points=" 259.219,105.442 212.088,132.653 212.088,78.231 259.219,51.021"/>
<polygon points=" 353.48,105.442 306.349,132.653 306.349,78.231 353.48,51.021"/>
<polygon points=" 447.741,105.442 400.611,132.653 400.611,78.231 447.741,51.021"/>
<polygon points=" 70.696,595.238 23.565,622.45 23.565,568.027 70.696,540.817"/>
<polygon points=" 164.958,268.708 117.826,295.919 117.826,241.496 164.958,214.286"/>
<polygon points=" 212.088,187.075 164.958,214.286 164.958,159.864 212.088,132.653"/>
<polygon points=" 164.958,105.442 117.826,132.653 117.826,78.231 164.958,51.021"/>
<polygon points=" 871.917,132.653 871.917,187.075 824.787,214.286 824.787,159.864"/>
<polygon points=" 494.872,187.075 447.741,214.286 447.741,159.864 494.872,132.653"/>
<polygon points=" 306.349,187.075 259.219,214.286 259.219,159.864 306.349,132.653"/>
<polygon points=" 259.219,268.708 212.088,295.919 212.088,241.496 259.219,214.286"/>
<polygon points=" 353.48,323.129 400.611,295.919 400.611,350.34 353.48,377.551"/>
<polygon points=" 447.741,268.708 400.611,295.919 400.611,241.496 447.741,214.286"/>
<polygon points=" 117.826,132.653 117.826,187.075 70.696,214.286 70.696,159.864"/>
<polygon points=" 70.696,214.286 70.696,268.708 23.565,295.919 23.565,241.496"/>
<polygon points=" 212.088,350.34 164.958,377.551 164.958,323.129 212.088,295.919"/>
<polygon points=" 164.958,431.973 117.826,459.184 117.826,404.762 164.958,377.551"/>
<polygon points=" 353.48,268.708 306.349,295.919 306.349,241.496 353.48,214.286"/>
<polygon points=" 400.611,187.075 353.48,214.286 353.48,159.864 400.611,132.653"/>
<polygon points=" 212.088,513.606 164.958,540.817 164.958,486.394 212.088,459.184"/>
<polygon points=" 70.696,431.973 23.565,459.184 23.565,404.762 70.696,377.551"/>
<polygon points=" 117.826,350.34 70.696,377.551 70.696,323.129 117.826,295.919"/>
<polygon points=" 871.917,785.715 871.917,731.292 919.048,704.082 919.048,758.504"/>
<polygon points=" 824.787,867.348 824.787,812.925 871.917,785.715 871.917,840.136"/>
<polygon points=" 824.787,921.769 777.655,948.98 777.655,894.558 824.787,867.348"/>
<polygon points=" 636.263,812.925 683.394,785.715 683.394,840.136 636.263,867.348"/>
<polygon points=" 683.394,731.292 730.525,704.082 730.525,758.504 683.394,785.715"/>
<polygon points=" 117.826,840.136 70.696,867.348 70.696,812.925 117.826,785.715"/>
<polygon points=" 683.394,404.762 730.525,377.551 730.525,431.973 683.394,459.184"/>
<polygon points=" 730.525,377.551 730.525,323.129 777.655,295.919 777.655,350.34"/>
<polygon points=" 494.872,894.558 542.002,867.348 542.002,921.769 494.872,948.98"/>
<polygon points=" 589.133,894.558 636.263,867.348 636.263,921.769 589.133,948.98"/>
<polygon points=" 777.655,78.231 824.787,51.021 824.787,105.442 777.655,132.653"/>
<polygon points=" 589.133,295.919 589.133,241.496 636.263,214.286 636.263,268.708"/>
<polygon points=" 777.655,295.919 777.655,241.496 824.787,214.286 824.787,268.708"/>
<polygon points=" 259.219,704.082 259.219,758.504 212.088,785.715 212.088,731.292"/>
<polygon points=" 306.349,622.45 306.349,676.871 259.219,704.082 259.219,649.66"/>
<polygon points=" 494.872,731.292 542.002,704.082 542.002,758.504 494.872,785.715"/>
<polygon points=" 919.048,214.286 919.048,268.708 871.917,295.919 871.917,241.496"/>
<polygon points=" 683.394,295.919 683.394,241.496 730.525,214.286 730.525,268.708"/>
<polygon points=" 730.525,214.286 730.525,159.864 777.655,132.653 777.655,187.075"/>
<polygon points=" 730.525,649.66 777.655,622.45 777.655,676.871 730.525,704.082"/>
<polygon points=" 164.958,867.348 164.958,812.925 212.088,785.715 212.088,840.136"/>
<polygon points=" 542.002,649.66 589.133,622.45 589.133,676.871 542.002,704.082"/>
<polygon points=" 70.696,704.082 70.696,649.66 117.826,622.45 117.826,676.871"/>
<polygon points=" 636.263,649.66 683.394,622.45 683.394,676.871 636.263,704.082"/>
<polygon points=" 447.741,704.082 447.741,758.504 400.611,785.715 400.611,731.292"/>
<polygon points=" 777.655,568.027 824.787,540.817 824.787,595.238 777.655,622.45"/>
<polygon points=" 824.787,486.394 871.917,459.184 871.917,513.606 824.787,540.817"/>
<polygon points=" 589.133,731.292 636.263,704.082 636.263,758.504 589.133,785.715"/>
<polygon points=" 542.002,812.925 589.133,785.715 589.133,840.136 542.002,867.348"/>
<polygon points=" 683.394,894.558 730.525,867.348 730.525,921.769 683.394,948.98"/>
<polygon points=" 730.525,812.925 777.655,785.715 777.655,840.136 730.525,867.348"/>
<polygon points=" 777.655,731.292 824.787,704.082 824.787,758.504 777.655,785.715"/>
</g>
<g style="opacity:1.0;fill:#ffffff;fill-opacity:1;stroke:#68a9ed;stroke-width:1.0;stroke-opacity:0.300;"> <!-- group b -->
<polygon points=" 400.611,459.184 353.48,486.394 306.349,459.184 353.48,431.973"/>
<polygon points=" 494.872,459.184 447.741,486.394 400.611,459.184 447.741,431.973"/>
<polygon points=" 400.611,513.606 447.741,540.817 400.611,568.027 353.48,540.817"/>
<polygon points=" 919.048,51.021 871.917,78.231 824.787,51.021 871.917,23.81"/>
<polygon points=" 70.696,921.769 117.826,948.98 70.696,976.19 23.565,948.98"/>
<polygon points=" 164.958,921.769 212.088,948.98 164.958,976.19 117.826,948.98"/>
<polygon points=" 589.133,78.231 542.002,51.021 589.133,23.81 636.263,51.021"/>
<polygon points=" 353.48,921.769 400.611,948.98 353.48,976.19 306.349,948.98"/>
<polygon points=" 306.349,568.027 259.219,540.817 306.349,513.606 353.48,540.817"/>
<polygon points=" 70.696,51.021 117.826,23.81 164.958,51.021 117.826,78.231"/>
<polygon points=" 23.565,132.653 70.696,105.442 117.826,132.653 70.696,159.864"/>
<polygon points=" 542.002,649.66 494.872,622.45 542.002,595.238 589.133,622.45"/>
<polygon points=" 871.917,948.98 824.787,976.19 777.655,948.98 824.787,921.769"/>
<polygon points=" 683.394,513.606 730.525,540.817 683.394,568.027 636.263,540.817"/>
<polygon points=" 306.349,404.762 259.219,377.551 306.349,350.34 353.48,377.551"/>
<polygon points=" 730.525,486.394 683.394,459.184 730.525,431.973 777.655,459.184"/>
<polygon points=" 871.917,622.45 919.048,595.238 966.178,622.45 919.048,649.66"/>
<polygon points=" 212.088,241.496 164.958,214.286 212.088,187.075 259.219,214.286"/>
<polygon points=" 212.088,948.98 259.219,921.769 306.349,948.98 259.219,976.19"/>
<polygon points=" 777.655,948.98 730.525,976.19 683.394,948.98 730.525,921.769"/>
<polygon points=" 589.133,948.98 636.263,921.769 683.394,948.98 636.263,976.19"/>
<polygon points=" 447.741,921.769 494.872,948.98 447.741,976.19 400.611,948.98"/>
<polygon points=" 542.002,921.769 589.133,948.98 542.002,976.19 494.872,948.98"/>
<polygon points=" 117.826,622.45 70.696,649.66 23.565,622.45 70.696,595.238"/>
<polygon points=" 164.958,51.021 212.088,23.81 259.219,51.021 212.088,78.231"/>
<polygon points=" 683.394,78.231 636.263,51.021 683.394,23.81 730.525,51.021"/>
<polygon points=" 353.48,51.021 306.349,78.231 259.219,51.021 306.349,23.81"/>
<polygon points=" 447.741,51.021 400.611,78.231 353.48,51.021 400.611,23.81"/>
<polygon points=" 494.872,78.231 447.741,51.021 494.872,23.81 542.002,51.021"/>
<polygon points=" 683.394,676.871 730.525,704.082 683.394,731.292 636.263,704.082"/>
<polygon points=" 919.048,486.394 871.917,459.184 919.048,431.973 966.178,459.184"/>
<polygon points=" 777.655,840.136 824.787,867.348 777.655,894.558 730.525,867.348"/>
<polygon points=" 824.787,758.504 871.917,785.715 824.787,812.925 777.655,785.715"/>
<polygon points=" 353.48,758.504 400.611,785.715 353.48,812.925 306.349,785.715"/>
<polygon points=" 636.263,758.504 683.394,785.715 636.263,812.925 589.133,785.715"/>
<polygon points=" 871.917,404.762 824.787,377.551 871.917,350.34 919.048,377.551"/>
<polygon points=" 164.958,595.238 212.088,622.45 164.958,649.66 117.826,622.45"/>
<polygon points=" 117.826,513.606 164.958,540.817 117.826,568.027 70.696,540.817"/>
<polygon points=" 259.219,159.864 212.088,132.653 259.219,105.442 306.349,132.653"/>
<polygon points=" 777.655,459.184 824.787,431.973 871.917,459.184 824.787,486.394"/>
<polygon points=" 777.655,622.45 824.787,595.238 871.917,622.45 824.787,649.66"/>
<polygon points=" 730.525,595.238 777.655,622.45 730.525,649.66 683.394,622.45"/>
<polygon points=" 636.263,431.973 683.394,459.184 636.263,486.394 589.133,459.184"/>
<polygon points=" 730.525,540.817 777.655,513.606 824.787,540.817 777.655,568.027"/>
<polygon points=" 542.002,540.817 589.133,513.606 636.263,540.817 589.133,568.027"/>
<polygon points=" 117.826,785.715 164.958,758.504 212.088,785.715 164.958,812.925"/>
<polygon points=" 259.219,758.504 306.349,785.715 259.219,812.925 212.088,785.715"/>
<polygon points=" 494.872,513.606 542.002,540.817 494.872,568.027 447.741,540.817"/>
<polygon points=" 447.741,649.66 400.611,622.45 447.741,595.238 494.872,622.45"/>
<polygon points=" 353.48,649.66 306.349,622.45 353.48,595.238 400.611,622.45"/>
<polygon points=" 259.219,595.238 306.349,622.45 259.219,649.66 212.088,622.45"/>
<polygon points=" 259.219,486.394 212.088,459.184 259.219,431.973 306.349,459.184"/>
<polygon points=" 542.002,486.394 494.872,459.184 542.002,431.973 589.133,459.184"/>
<polygon points=" 494.872,350.34 542.002,377.551 494.872,404.762 447.741,377.551"/>
<polygon points=" 70.696,214.286 117.826,187.075 164.958,214.286 117.826,241.496"/>
<polygon points=" 164.958,105.442 212.088,132.653 164.958,159.864 117.826,132.653"/>
<polygon points=" 919.048,105.442 966.178,132.653 919.048,159.864 871.917,132.653"/>
<polygon points=" 777.655,78.231 730.525,51.021 777.655,23.81 824.787,51.021"/>
<polygon points=" 730.525,159.864 683.394,132.653 730.525,105.442 777.655,132.653"/>
<polygon points=" 871.917,132.653 824.787,159.864 777.655,132.653 824.787,105.442"/>
<polygon points=" 353.48,159.864 306.349,132.653 353.48,105.442 400.611,132.653"/>
<polygon points=" 447.741,159.864 400.611,132.653 447.741,105.442 494.872,132.653"/>
<polygon points=" 542.002,159.864 494.872,132.653 542.002,105.442 589.133,132.653"/>
<polygon points=" 636.263,159.864 589.133,132.653 636.263,105.442 683.394,132.653"/>
<polygon points=" 259.219,323.129 212.088,295.919 259.219,268.708 306.349,295.919"/>
<polygon points=" 353.48,323.129 306.349,295.919 353.48,268.708 400.611,295.919"/>
<polygon points=" 447.741,323.129 400.611,295.919 447.741,268.708 494.872,295.919"/>
<polygon points=" 70.696,268.708 117.826,295.919 70.696,323.129 23.565,295.919"/>
<polygon points=" 164.958,323.129 117.826,295.919 164.958,268.708 212.088,295.919"/>
<polygon points=" 164.958,377.551 117.826,404.762 70.696,377.551 117.826,350.34"/>
<polygon points=" 259.219,377.551 212.088,404.762 164.958,377.551 212.088,350.34"/>
<polygon points=" 306.349,241.496 259.219,214.286 306.349,187.075 353.48,214.286"/>
<polygon points=" 400.611,241.496 353.48,214.286 400.611,187.075 447.741,214.286"/>
<polygon points=" 259.219,540.817 212.088,568.027 164.958,540.817 212.088,513.606"/>
<polygon points=" 117.826,459.184 70.696,486.394 23.565,459.184 70.696,431.973"/>
<polygon points=" 919.048,921.769 966.178,948.98 919.048,976.19 871.917,948.98"/>
<polygon points=" 919.048,867.348 871.917,894.558 824.787,867.348 871.917,840.136"/>
<polygon points=" 683.394,840.136 730.525,867.348 683.394,894.558 636.263,867.348"/>
<polygon points=" 164.958,867.348 117.826,894.558 70.696,867.348 117.826,840.136"/>
<polygon points=" 494.872,241.496 447.741,214.286 494.872,187.075 542.002,214.286"/>
<polygon points=" 589.133,241.496 542.002,214.286 589.133,187.075 636.263,214.286"/>
<polygon points=" 683.394,241.496 636.263,214.286 683.394,187.075 730.525,214.286"/>
<polygon points=" 777.655,241.496 730.525,214.286 777.655,187.075 824.787,214.286"/>
<polygon points=" 919.048,214.286 871.917,241.496 824.787,214.286 871.917,187.075"/>
<polygon points=" 164.958,867.348 212.088,840.136 259.219,867.348 212.088,894.558"/>
<polygon points=" 306.349,840.136 353.48,867.348 306.349,894.558 259.219,867.348"/>
<polygon points=" 400.611,840.136 447.741,867.348 400.611,894.558 353.48,867.348"/>
<polygon points=" 494.872,840.136 542.002,867.348 494.872,894.558 447.741,867.348"/>
<polygon points=" 919.048,268.708 966.178,295.919 919.048,323.129 871.917,295.919"/>
<polygon points=" 777.655,404.762 730.525,377.551 777.655,350.34 824.787,377.551"/>
<polygon points=" 683.394,404.762 636.263,377.551 683.394,350.34 730.525,377.551"/>
<polygon points=" 589.133,350.34 636.263,377.551 589.133,404.762 542.002,377.551"/>
<polygon points=" 353.48,377.551 400.611,350.34 447.741,377.551 400.611,404.762"/>
<polygon points=" 212.088,459.184 164.958,486.394 117.826,459.184 164.958,431.973"/>
<polygon points=" 966.178,785.715 919.048,812.925 871.917,785.715 919.048,758.504"/>
<polygon points=" 730.525,758.504 777.655,785.715 730.525,812.925 683.394,785.715"/>
<polygon points=" 400.611,676.871 447.741,704.082 400.611,731.292 353.48,704.082"/>
<polygon points=" 494.872,676.871 542.002,704.082 494.872,731.292 447.741,704.082"/>
<polygon points=" 589.133,676.871 636.263,704.082 589.133,731.292 542.002,704.082"/>
<polygon points=" 117.826,785.715 70.696,812.925 23.565,785.715 70.696,758.504"/>
<polygon points=" 636.263,595.238 683.394,622.45 636.263,649.66 589.133,622.45"/>
<polygon points=" 447.741,758.504 494.872,785.715 447.741,812.925 400.611,785.715"/>
<polygon points=" 542.002,758.504 589.133,785.715 542.002,812.925 494.872,785.715"/>
<polygon points=" 824.787,540.817 871.917,513.606 919.048,540.817 871.917,568.027"/>
<polygon points=" 871.917,676.871 919.048,704.082 871.917,731.292 824.787,704.082"/>
<polygon points=" 824.787,323.129 777.655,295.919 824.787,268.708 871.917,295.919"/>
<polygon points=" 730.525,323.129 683.394,295.919 730.525,268.708 777.655,295.919"/>
<polygon points=" 542.002,323.129 494.872,295.919 542.002,268.708 589.133,295.919"/>
<polygon points=" 636.263,323.129 589.133,295.919 636.263,268.708 683.394,295.919"/>
<polygon points=" 70.696,704.082 117.826,676.871 164.958,704.082 117.826,731.292"/>
<polygon points=" 306.349,676.871 353.48,704.082 306.349,731.292 259.219,704.082"/>
<polygon points=" 212.088,676.871 259.219,704.082 212.088,731.292 164.958,704.082"/>
<polygon points=" 777.655,676.871 824.787,704.082 777.655,731.292 730.525,704.082"/>
<polygon points=" 589.133,840.136 636.263,867.348 589.133,894.558 542.002,867.348"/>
</g>
<div xmlns=""/></svg>